<mxfile host="app.diagrams.net" modified="2024-03-20T12:05:09.508Z" agent="Mozilla/5.0 (Macintosh; Intel Mac OS X 10_15_7) AppleWebKit/537.36 (KHTML, like Gecko) Chrome/122.0.0.0 Safari/537.36" etag="44dq3NGDdwi6Gpm_EyvF" version="24.0.7" type="github">
  <diagram name="第 1 页" id="31_aY2b9oiJGZhxjjCR7">
    <mxGraphModel dx="954" dy="606" grid="1" gridSize="10" guides="1" tooltips="1" connect="1" arrows="1" fold="1" page="1" pageScale="1" pageWidth="827" pageHeight="1169" math="0" shadow="0">
      <root>
        <mxCell id="0" />
        <mxCell id="1" parent="0" />
        <mxCell id="5ZsdtWM98wblcfqnr6au-1" value="物料描述的Json" style="rounded=0;whiteSpace=wrap;html=1;fontSize=16;" parent="1" vertex="1">
          <mxGeometry x="60" y="230" width="110" height="50" as="geometry" />
        </mxCell>
        <mxCell id="5ZsdtWM98wblcfqnr6au-2" value="物料属性" style="rounded=0;whiteSpace=wrap;html=1;fontSize=16;" parent="1" vertex="1">
          <mxGeometry x="280" y="170" width="100" height="40" as="geometry" />
        </mxCell>
        <mxCell id="5ZsdtWM98wblcfqnr6au-3" value="" style="edgeStyle=orthogonalEdgeStyle;rounded=0;orthogonalLoop=1;jettySize=auto;html=1;exitX=1;exitY=0.5;exitDx=0;exitDy=0;fontSize=16;" parent="1" source="5ZsdtWM98wblcfqnr6au-4" target="5ZsdtWM98wblcfqnr6au-12" edge="1">
          <mxGeometry relative="1" as="geometry" />
        </mxCell>
        <mxCell id="5ZsdtWM98wblcfqnr6au-4" value="物料初始数据" style="rounded=0;whiteSpace=wrap;html=1;fontSize=16;" parent="1" vertex="1">
          <mxGeometry x="200" y="320" width="100" height="40" as="geometry" />
        </mxCell>
        <mxCell id="5ZsdtWM98wblcfqnr6au-5" value="属性面板解析器" style="rounded=0;whiteSpace=wrap;html=1;fontSize=16;" parent="1" vertex="1">
          <mxGeometry x="547" y="220" width="114" height="40" as="geometry" />
        </mxCell>
        <mxCell id="5ZsdtWM98wblcfqnr6au-6" value="属性表单面板" style="rounded=0;whiteSpace=wrap;html=1;fontSize=16;" parent="1" vertex="1">
          <mxGeometry x="836" y="220" width="100" height="40" as="geometry" />
        </mxCell>
        <mxCell id="5ZsdtWM98wblcfqnr6au-7" value="" style="endArrow=classic;html=1;rounded=0;exitX=1;exitY=0.5;exitDx=0;exitDy=0;entryX=0;entryY=0.5;entryDx=0;entryDy=0;fontSize=16;" parent="1" source="5ZsdtWM98wblcfqnr6au-1" target="5ZsdtWM98wblcfqnr6au-2" edge="1">
          <mxGeometry width="50" height="50" relative="1" as="geometry">
            <mxPoint x="390" y="340" as="sourcePoint" />
            <mxPoint x="440" y="290" as="targetPoint" />
          </mxGeometry>
        </mxCell>
        <mxCell id="5ZsdtWM98wblcfqnr6au-8" value="" style="endArrow=classic;html=1;rounded=0;exitX=1;exitY=0.75;exitDx=0;exitDy=0;entryX=0;entryY=0.5;entryDx=0;entryDy=0;fontSize=16;" parent="1" source="5ZsdtWM98wblcfqnr6au-1" target="5ZsdtWM98wblcfqnr6au-4" edge="1">
          <mxGeometry width="50" height="50" relative="1" as="geometry">
            <mxPoint x="180" y="260" as="sourcePoint" />
            <mxPoint x="290" y="180" as="targetPoint" />
          </mxGeometry>
        </mxCell>
        <mxCell id="5ZsdtWM98wblcfqnr6au-9" value="" style="endArrow=classic;html=1;rounded=0;exitX=1;exitY=0.5;exitDx=0;exitDy=0;entryX=0;entryY=0.5;entryDx=0;entryDy=0;fontSize=16;" parent="1" source="5ZsdtWM98wblcfqnr6au-2" target="5ZsdtWM98wblcfqnr6au-5" edge="1">
          <mxGeometry width="50" height="50" relative="1" as="geometry">
            <mxPoint x="180" y="260" as="sourcePoint" />
            <mxPoint x="290" y="180" as="targetPoint" />
          </mxGeometry>
        </mxCell>
        <mxCell id="5ZsdtWM98wblcfqnr6au-10" value="" style="endArrow=classic;html=1;rounded=0;exitX=0.5;exitY=0;exitDx=0;exitDy=0;entryX=0;entryY=0.75;entryDx=0;entryDy=0;fontSize=16;" parent="1" source="5ZsdtWM98wblcfqnr6au-12" target="5ZsdtWM98wblcfqnr6au-5" edge="1">
          <mxGeometry width="50" height="50" relative="1" as="geometry">
            <mxPoint x="510" y="340" as="sourcePoint" />
            <mxPoint x="556" y="250" as="targetPoint" />
            <Array as="points" />
          </mxGeometry>
        </mxCell>
        <mxCell id="5ZsdtWM98wblcfqnr6au-12" value="一个物料数据" style="rounded=0;whiteSpace=wrap;html=1;fontSize=16;" parent="1" vertex="1">
          <mxGeometry x="414" y="320" width="100" height="40" as="geometry" />
        </mxCell>
        <mxCell id="5ZsdtWM98wblcfqnr6au-13" value="注册物料组件" style="text;html=1;align=center;verticalAlign=middle;resizable=0;points=[];autosize=1;strokeColor=none;fillColor=none;fontSize=16;" parent="1" vertex="1">
          <mxGeometry x="165" y="250" width="120" height="30" as="geometry" />
        </mxCell>
        <mxCell id="5ZsdtWM98wblcfqnr6au-14" value="Props：Schema" style="text;html=1;align=center;verticalAlign=middle;resizable=0;points=[];autosize=1;strokeColor=none;fillColor=none;fontSize=16;" parent="1" vertex="1">
          <mxGeometry x="430" y="175" width="140" height="30" as="geometry" />
        </mxCell>
        <mxCell id="5ZsdtWM98wblcfqnr6au-15" value="Props：Value" style="text;html=1;align=center;verticalAlign=middle;resizable=0;points=[];autosize=1;strokeColor=none;fillColor=none;fontSize=16;" parent="1" vertex="1">
          <mxGeometry x="514" y="280" width="120" height="30" as="geometry" />
        </mxCell>
        <mxCell id="5ZsdtWM98wblcfqnr6au-16" value="渲染" style="text;html=1;align=center;verticalAlign=middle;resizable=0;points=[];autosize=1;strokeColor=none;fillColor=none;fontSize=16;" parent="1" vertex="1">
          <mxGeometry x="776" y="210" width="60" height="30" as="geometry" />
        </mxCell>
        <mxCell id="5ZsdtWM98wblcfqnr6au-17" value="生成" style="text;html=1;align=center;verticalAlign=middle;resizable=0;points=[];autosize=1;strokeColor=none;fillColor=none;fontSize=16;" parent="1" vertex="1">
          <mxGeometry x="320" y="350" width="60" height="30" as="geometry" />
        </mxCell>
        <mxCell id="Z8ZRP_7kTQRBCO53DbjH-1" value="Keep-alive" style="rounded=0;whiteSpace=wrap;html=1;fontSize=16;" vertex="1" parent="1">
          <mxGeometry x="650" y="100" width="100" height="40" as="geometry" />
        </mxCell>
        <mxCell id="Z8ZRP_7kTQRBCO53DbjH-2" value="Vue组件解析器" style="rounded=0;whiteSpace=wrap;html=1;fontSize=16;" vertex="1" parent="1">
          <mxGeometry x="790" y="90" width="120" height="40" as="geometry" />
        </mxCell>
      </root>
    </mxGraphModel>
  </diagram>
</mxfile>
